<svg width="22" height="22" viewBox="0 0 22 22" fill="none" xmlns="http://www.w3.org/2000/svg">
<path d="M18.7778 1H15.4444C14.2171 1 13.2222 1.99492 13.2222 3.22222V6.55556C13.2222 7.78286 14.2171 8.77777 15.4444 8.77777H18.7778C20.0051 8.77777 21 7.78286 21 6.55556V3.22222C21 1.99492 20.0051 1 18.7778 1Z" stroke="black" stroke-width="2" stroke-linecap="round" stroke-linejoin="round"/>
<path d="M6.55556 1H3.22222C1.99492 1 1 1.99492 1 3.22222V6.55556C1 7.78286 1.99492 8.77777 3.22222 8.77777H6.55556C7.78286 8.77777 8.77778 7.78286 8.77778 6.55556V3.22222C8.77778 1.99492 7.78286 1 6.55556 1Z" stroke="black" stroke-width="2" stroke-linecap="round" stroke-linejoin="round"/>
<path d="M18.7778 13.2222H15.4444C14.2171 13.2222 13.2222 14.2171 13.2222 15.4444V18.7778C13.2222 20.0051 14.2171 21 15.4444 21H18.7778C20.0051 21 21 20.0051 21 18.7778V15.4444C21 14.2171 20.0051 13.2222 18.7778 13.2222Z" stroke="black" stroke-width="2" stroke-linecap="round" stroke-linejoin="round"/>
<path d="M6.55556 13.2222H3.22222C1.99492 13.2222 1 14.2171 1 15.4444V18.7778C1 20.0051 1.99492 21 3.22222 21H6.55556C7.78286 21 8.77778 20.0051 8.77778 18.7778V15.4444C8.77778 14.2171 7.78286 13.2222 6.55556 13.2222Z" stroke="black" stroke-width="2" stroke-linecap="round" stroke-linejoin="round"/>
</svg>
